<svg width="58" height="17" viewBox="0 0 58 17" fill="none" xmlns="http://www.w3.org/2000/svg">
<g id="Main">
<g id="Cards">
<g id="Group 2590">
<g id="Group 2588">
<g id="Generative_Object">
<g id="Group">
<path id="Vector" d="M10.2807 14.6951L1.45926 14.7158C0.79988 14.7171 0.410717 13.9982 0.371929 13.5198C0.325385 12.9509 0.608532 12.0912 1.32739 12.0834L10.1967 11.989C11.0565 11.98 11.5194 11.0995 11.5245 10.391C11.5297 9.65145 11.0565 8.8059 10.2019 8.79555L3.7658 8.7141C2.17036 8.69341 0.814103 7.36301 0.303406 6.04295C-0.308138 4.46044 0.0254307 2.72666 1.11793 1.53977C1.90531 0.683872 2.85689 0.0787873 4.05541 0.0800802L12.9234 0.0878373C13.6733 0.0878373 14.1336 0.894613 14.0819 1.48935C14.0159 2.24441 13.4703 2.76803 12.6545 2.7732L3.92483 2.81974C3.10772 2.82362 2.67976 3.72866 2.67201 4.37123C2.66425 5.09655 3.08962 6.00547 3.94164 6.01581L10.2096 6.09856C11.756 6.11924 13.2376 7.17812 13.8181 8.58868C14.3689 9.92813 14.3081 11.3995 13.5221 12.6975C12.9493 13.6439 11.7198 14.6925 10.2807 14.6964V14.6951Z" fill="#5267AA"/>
<path id="Vector_2" d="M25.5836 7.31571L30.357 12.4227C30.8742 12.976 30.9324 13.6936 30.5367 14.2392C30.1734 14.7409 29.2012 15.0253 28.6905 14.4862L23.2047 8.68877L20.6421 8.70945L20.5917 13.7272C20.584 14.4306 19.8638 14.7525 19.2846 14.746C18.7196 14.7409 17.9723 14.3323 17.971 13.5941L17.9438 1.44204C17.9426 0.66113 18.4843 0.124573 19.1605 0.0508773C19.7901 -0.0163537 20.5943 0.40384 20.6008 1.1576L20.6473 6.08745L23.29 6.07064L25.5293 3.64515L28.3853 0.627508C28.8986 0.0844878 29.6033 -0.211582 30.2743 0.277136C30.8251 0.677936 30.966 1.54547 30.4954 2.21132L25.5836 7.31571Z" fill="#5267AA"/>
<path id="Vector_3" d="M42.0447 3.66064L36.2344 14.0556C35.8724 14.7033 35.1471 14.9296 34.5756 14.6788C33.9861 14.4202 33.5167 13.6108 33.8891 12.9346L40.4777 0.988211C40.8255 0.358567 41.3517 0.0133594 41.9788 0.000430323C42.6033 -0.0124987 43.2174 0.265472 43.5691 0.893824L50.1642 12.7071C50.565 13.4259 50.3503 14.1745 49.7479 14.5611C49.1053 14.9723 48.2739 14.7318 47.8783 14.0297L42.046 3.66322L42.0447 3.66064Z" fill="#64A4D4"/>
<path id="Vector_4" d="M56.5423 13.249C56.5449 14.1165 56.0484 14.6634 55.3593 14.7526C54.6702 14.8418 53.8531 14.3997 53.8518 13.5606L53.835 1.45897C53.835 0.662545 54.3004 0.138923 54.9727 0.0497126C55.6437 -0.0394978 56.5022 0.345784 56.5048 1.17712L56.5423 13.249Z" fill="#63A4D4"/>
<path id="Vector_5" d="M42.0525 14.718C43.0836 14.718 43.9195 13.8822 43.9195 12.8511C43.9195 11.82 43.0836 10.9841 42.0525 10.9841C41.0214 10.9841 40.1855 11.82 40.1855 12.8511C40.1855 13.8822 41.0214 14.718 42.0525 14.718Z" fill="#5368A9"/>
</g>
</g>
<g id="Group_2">
<g id="Group_3">
<g id="Group_4">
</g>
</g>
</g>
</g>
</g>
</g>
</g>
</svg>
